<?xml version="1.0" encoding="UTF-8"?>
<!DOCTYPE svg PUBLIC "-//W3C//DTD SVG 1.1//EN" "http://www.w3.org/Graphics/SVG/1.1/DTD/svg11.dtd">
<svg xmlns="http://www.w3.org/2000/svg" version="1.1" width="448px" height="273px" style="shape-rendering:geometricPrecision; text-rendering:geometricPrecision; image-rendering:optimizeQuality; fill-rule:evenodd; clip-rule:evenodd" xmlns:xlink="http://www.w3.org/1999/xlink">
<g><path style="opacity:0.492" fill="#d2d2d2" d="M 274.5,6.5 C 266.097,5.8665 258.097,6.53316 250.5,8.5C 249.596,7.79105 249.263,6.79105 249.5,5.5C 258.017,5.17395 266.35,5.50728 274.5,6.5 Z"/></g>
<g><path style="opacity:1" fill="#515151" d="M 274.5,6.5 C 274.427,8.02694 275.094,9.02694 276.5,9.5C 284.931,26.1955 293.264,43.0288 301.5,60C 295.804,60.8299 290.137,60.6632 284.5,59.5C 277.897,49.9474 271.564,40.2808 265.5,30.5C 265.573,28.9731 264.906,27.9731 263.5,27.5C 263.573,25.9731 262.906,24.9731 261.5,24.5C 261.573,22.9731 260.906,21.9731 259.5,21.5C 257.478,19.4687 255.811,17.1354 254.5,14.5C 254.759,12.0107 253.759,10.344 251.5,9.5C 250.833,9.5 250.5,9.16667 250.5,8.5C 258.097,6.53316 266.097,5.8665 274.5,6.5 Z"/></g>
<g><path style="opacity:0.329" fill="#d3d3d3" d="M 274.5,6.5 C 275.906,6.97306 276.573,7.97306 276.5,9.5C 275.094,9.02694 274.427,8.02694 274.5,6.5 Z"/></g>
<g><path style="opacity:0.973" fill="#a7a7a7" d="M 251.5,9.5 C 253.759,10.344 254.759,12.0107 254.5,14.5C 253.11,13.1007 252.11,11.4341 251.5,9.5 Z"/></g>
<g><path style="opacity:0.004" fill="#e1e1e1" d="M 259.5,21.5 C 260.906,21.9731 261.573,22.9731 261.5,24.5C 260.094,24.0269 259.427,23.0269 259.5,21.5 Z"/></g>
<g><path style="opacity:0.004" fill="#e3e3e3" d="M 261.5,24.5 C 262.906,24.9731 263.573,25.9731 263.5,27.5C 262.094,27.0269 261.427,26.0269 261.5,24.5 Z"/></g>
<g><path style="opacity:0.004" fill="#e1e1e1" d="M 263.5,27.5 C 264.906,27.9731 265.573,28.9731 265.5,30.5C 264.094,30.0269 263.427,29.0269 263.5,27.5 Z"/></g>
<g><path style="opacity:0.096" fill="#e9e9e9" d="M 271.5,76.5 C 267.833,76.5 264.167,76.5 260.5,76.5C 260.5,78.1667 260.5,79.8333 260.5,81.5C 259.539,79.7354 259.205,77.7354 259.5,75.5C 263.702,75.1832 267.702,75.5166 271.5,76.5 Z"/></g>
<g><path style="opacity:1" fill="#505050" d="M 124.5,76.5 C 125.833,76.5 127.167,76.5 128.5,76.5C 128.5,78.1667 128.5,79.8333 128.5,81.5C 125.109,82.141 121.776,83.3077 118.5,85C 117.874,85.7504 117.374,86.5838 117,87.5C 116.365,92.9465 116.865,98.2799 118.5,103.5C 119.724,106.485 119.391,109.151 117.5,111.5C 118.355,112.293 119.189,111.96 120,110.5C 120.2,112.32 121.034,113.653 122.5,114.5C 122.5,114.833 122.5,115.167 122.5,115.5C 122.259,117.898 122.926,119.898 124.5,121.5C 129.922,135.495 134.588,149.829 138.5,164.5C 138.12,166.698 138.787,168.365 140.5,169.5C 146.433,185.967 151.767,202.633 156.5,219.5C 157.167,223.5 157.833,223.5 158.5,219.5C 158.767,217.035 159.434,214.701 160.5,212.5C 162.213,211.365 162.88,209.698 162.5,207.5C 162.41,204.848 163.076,202.515 164.5,200.5C 166.134,201.207 167.468,202.373 168.5,204C 165.721,204.149 165.221,204.983 167,206.5C 167.495,208.473 167.662,210.473 167.5,212.5C 162.474,229.942 157.14,247.275 151.5,264.5C 149.5,265.833 147.5,265.833 145.5,264.5C 126.577,208.899 107.744,153.232 89,97.5C 86.2498,88.7445 80.4164,83.5778 71.5,82C 70.4238,80.2739 70.2571,78.4406 71,76.5C 71.8926,75.9186 72.8926,75.5852 74,75.5C 90.809,76.4648 107.642,76.7981 124.5,76.5 Z"/></g>
<g><path style="opacity:0.258" fill="#f4f4f4" d="M 171.5,76.5 C 170.167,76.5 168.833,76.5 167.5,76.5C 167.5,78.1667 167.5,79.8333 167.5,81.5C 166.539,79.7354 166.205,77.7354 166.5,75.5C 168.415,75.2155 170.081,75.5489 171.5,76.5 Z"/></g>
<g><path style="opacity:1" fill="#535353" d="M 171.5,76.5 C 188.167,76.5 204.833,76.5 221.5,76.5C 223.167,76.5 224.833,76.5 226.5,76.5C 226.5,78.1667 226.5,79.8333 226.5,81.5C 222.298,82.2926 217.965,83.1259 213.5,84C 211.741,85.008 210.574,86.508 210,88.5C 209.561,92.2113 209.894,95.8779 211,99.5C 212.609,104.823 214.109,110.156 215.5,115.5C 215.259,117.898 215.926,119.898 217.5,121.5C 220.941,129.492 223.607,137.825 225.5,146.5C 225.259,148.898 225.926,150.898 227.5,152.5C 231.607,162.491 234.94,172.824 237.5,183.5C 237.259,185.898 237.926,187.898 239.5,189.5C 243.274,198.491 246.274,207.825 248.5,217.5C 248.231,219.429 248.731,221.095 250,222.5C 251.903,220.559 252.736,218.226 252.5,215.5C 252.723,211.838 253.723,208.505 255.5,205.5C 257.565,205.166 259.232,203.666 260.5,201C 259.572,200.612 258.905,199.945 258.5,199C 259.233,197.234 259.567,195.401 259.5,193.5C 259.723,189.838 260.723,186.505 262.5,183.5C 264.074,181.898 264.741,179.898 264.5,177.5C 265.393,171.828 267.059,166.494 269.5,161.5C 271.074,159.898 271.741,157.898 271.5,155.5C 271.721,152.933 272.388,150.599 273.5,148.5C 273.312,150.103 273.812,151.437 275,152.5C 276.356,151.62 277.856,151.286 279.5,151.5C 274.074,171.104 268.074,190.437 261.5,209.5C 259.692,210.918 259.025,212.918 259.5,215.5C 255.074,232.103 250.074,248.436 244.5,264.5C 242.169,265.995 240.169,265.662 238.5,263.5C 223.072,219.387 207.906,175.054 193,130.5C 184.787,158.045 176.287,185.378 167.5,212.5C 167.662,210.473 167.495,208.473 167,206.5C 165.221,204.983 165.721,204.149 168.5,204C 167.468,202.373 166.134,201.207 164.5,200.5C 166.13,193.949 168.13,187.616 170.5,181.5C 172.074,179.898 172.741,177.898 172.5,175.5C 175.261,164.556 178.594,153.889 182.5,143.5C 184.074,141.898 184.741,139.898 184.5,137.5C 185.774,131.574 187.441,125.74 189.5,120C 186.394,110.015 182.894,100.182 179,90.5C 176.407,85.721 172.573,82.721 167.5,81.5C 167.5,79.8333 167.5,78.1667 167.5,76.5C 168.833,76.5 170.167,76.5 171.5,76.5 Z"/></g>
<g><path style="opacity:0.656" fill="#c7c7c7" d="M 221.5,76.5 C 223.265,75.5386 225.265,75.2053 227.5,75.5C 227.795,77.7354 227.461,79.7354 226.5,81.5C 226.5,79.8333 226.5,78.1667 226.5,76.5C 224.833,76.5 223.167,76.5 221.5,76.5 Z"/></g>
<g><path style="opacity:1" fill="#4e4e4e" d="M 321.5,76.5 C 323.5,76.5 325.5,76.5 327.5,76.5C 327.5,78.1667 327.5,79.8333 327.5,81.5C 322.094,82.0427 316.761,83.376 311.5,85.5C 308.533,88.8956 307.033,92.8956 307,97.5C 306.032,148.528 306.365,199.528 308,250.5C 310.231,255.389 314.064,257.889 319.5,258C 333.852,258.725 348.185,258.558 362.5,257.5C 366.081,257.862 369.081,256.862 371.5,254.5C 371.842,253.662 372.508,253.328 373.5,253.5C 375.027,253.573 376.027,252.906 376.5,251.5C 377.5,249.833 378.833,248.5 380.5,247.5C 381.906,247.027 382.573,246.027 382.5,244.5C 386.69,233.884 389.357,222.884 390.5,211.5C 392.114,209.925 394.114,209.259 396.5,209.5C 396.5,212.833 396.5,216.167 396.5,219.5C 396.707,232.171 397.04,244.837 397.5,257.5C 397.5,259.833 397.5,262.167 397.5,264.5C 390.167,264.5 382.833,264.5 375.5,264.5C 347.167,264.5 318.833,264.5 290.5,264.5C 280.5,264.5 270.5,264.5 260.5,264.5C 260.5,262.833 260.5,261.167 260.5,259.5C 266.038,258.994 271.372,257.661 276.5,255.5C 278.608,252.843 279.941,249.843 280.5,246.5C 281.664,213.002 281.831,179.336 281,145.5C 280.187,147.436 279.687,149.436 279.5,151.5C 277.856,151.286 276.356,151.62 275,152.5C 273.812,151.437 273.312,150.103 273.5,148.5C 275.559,141.155 277.725,133.822 280,126.5C 280.667,115.167 280.667,103.833 280,92.5C 279.394,89.4522 277.894,86.9522 275.5,85C 270.489,83.2923 265.489,82.1256 260.5,81.5C 260.5,79.8333 260.5,78.1667 260.5,76.5C 264.167,76.5 267.833,76.5 271.5,76.5C 288.223,76.3305 304.889,76.3305 321.5,76.5 Z"/></g>
<g><path style="opacity:0.325" fill="#f0f0f0" d="M 321.5,76.5 C 323.607,75.5318 325.941,75.1984 328.5,75.5C 328.795,77.7354 328.461,79.7354 327.5,81.5C 327.5,79.8333 327.5,78.1667 327.5,76.5C 325.5,76.5 323.5,76.5 321.5,76.5 Z"/></g>
<g><path style="opacity:0.292" fill="#f2f2f2" d="M 124.5,76.5 C 125.919,75.5489 127.585,75.2155 129.5,75.5C 129.795,77.7354 129.461,79.7354 128.5,81.5C 128.5,79.8333 128.5,78.1667 128.5,76.5C 127.167,76.5 125.833,76.5 124.5,76.5 Z"/></g>
<g><path style="opacity:1" fill="#777777" d="M 118.5,103.5 C 120.204,106.939 121.538,110.605 122.5,114.5C 121.034,113.653 120.2,112.32 120,110.5C 119.189,111.96 118.355,112.293 117.5,111.5C 119.391,109.151 119.724,106.485 118.5,103.5 Z"/></g>
<g><path style="opacity:0.945" fill="#a7a7a7" d="M 122.5,115.5 C 123.738,117.214 124.405,119.214 124.5,121.5C 122.926,119.898 122.259,117.898 122.5,115.5 Z"/></g>
<g><path style="opacity:0.957" fill="#a2a2a2" d="M 215.5,115.5 C 216.738,117.214 217.405,119.214 217.5,121.5C 215.926,119.898 215.259,117.898 215.5,115.5 Z"/></g>
<g><path style="opacity:0.078" fill="#f4f4f4" d="M 388.5,136.5 C 387.833,136.833 387.167,137.167 386.5,137.5C 386.711,135.576 387.377,135.243 388.5,136.5 Z"/></g>
<g><path style="opacity:0.996" fill="#8f8f8f" d="M 388.5,136.5 C 390.153,136.66 391.486,137.326 392.5,138.5C 387.941,138.009 386.941,139.342 389.5,142.5C 386.179,141.902 385.179,140.235 386.5,137.5C 387.167,137.167 387.833,136.833 388.5,136.5 Z"/></g>
<g><path style="opacity:0.357" fill="#e2e2e2" d="M 70.5,139.5 C 71.209,138.596 72.209,138.263 73.5,138.5C 73.5,139.5 73.5,140.5 73.5,141.5C 72.7777,140.449 71.7777,139.782 70.5,139.5 Z"/></g>
<g><path style="opacity:0.929" fill="#a8a8a8" d="M 184.5,137.5 C 184.741,139.898 184.074,141.898 182.5,143.5C 182.595,141.214 183.262,139.214 184.5,137.5 Z"/></g>
<g><path style="opacity:0.078" fill="#ededed" d="M 73.5,141.5 C 74.7574,142.623 74.4241,143.289 72.5,143.5C 72.8333,142.833 73.1667,142.167 73.5,141.5 Z"/></g>
<g><path style="opacity:0.999" fill="#707070" d="M 70.5,139.5 C 71.7777,139.782 72.7777,140.449 73.5,141.5C 73.1667,142.167 72.8333,142.833 72.5,143.5C 53.4631,152.012 34.1298,160.012 14.5,167.5C 12.8333,167.5 11.1667,167.5 9.5,167.5C 9.26269,168.791 9.59603,169.791 10.5,170.5C 21.7526,175.771 32.7526,181.438 43.5,187.5C 44.0899,188.766 44.5899,190.099 45,191.5C 46.0113,190.663 47.1779,190.33 48.5,190.5C 49.4916,190.328 50.1583,190.662 50.5,191.5C 51.4124,192.738 51.5791,194.072 51,195.5C 49.8545,194.316 48.6879,194.316 47.5,195.5C 45.1815,195.008 43.1815,194.008 41.5,192.5C 41.0269,191.094 40.0269,190.427 38.5,190.5C 34.8487,189.341 31.5154,187.674 28.5,185.5C 28.0269,184.094 27.0269,183.427 25.5,183.5C 21.8487,182.341 18.5154,180.674 15.5,178.5C 15.0269,177.094 14.0269,176.427 12.5,176.5C 8.84873,175.341 5.5154,173.674 2.5,171.5C 1.83333,170.5 1.16667,169.5 0.5,168.5C 23.5368,158.321 46.8701,148.654 70.5,139.5 Z"/></g>
<g><path style="opacity:0.055" fill="#fafafa" d="M 280.5,246.5 C 280.832,214.662 280.498,182.996 279.5,151.5C 279.687,149.436 280.187,147.436 281,145.5C 281.831,179.336 281.664,213.002 280.5,246.5 Z"/></g>
<g><path style="opacity:0.329" fill="#d8d8d8" d="M 399.5,147.5 C 401.027,147.427 402.027,148.094 402.5,149.5C 400.973,149.573 399.973,148.906 399.5,147.5 Z"/></g>
<g><path style="opacity:0.965" fill="#a0a0a0" d="M 225.5,146.5 C 226.738,148.214 227.405,150.214 227.5,152.5C 225.926,150.898 225.259,148.898 225.5,146.5 Z"/></g>
<g><path style="opacity:0.365" fill="#d5d5d5" d="M 414.5,155.5 C 416.027,155.427 417.027,156.094 417.5,157.5C 415.973,157.573 414.973,156.906 414.5,155.5 Z"/></g>
<g><path style="opacity:0.965" fill="#a1a1a1" d="M 271.5,155.5 C 271.741,157.898 271.074,159.898 269.5,161.5C 269.595,159.214 270.262,157.214 271.5,155.5 Z"/></g>
<g><path style="opacity:0.318" fill="#dadada" d="M 427.5,162.5 C 429.027,162.427 430.027,163.094 430.5,164.5C 428.973,164.573 427.973,163.906 427.5,162.5 Z"/></g>
<g><path style="opacity:0.997" fill="#707070" d="M 392.5,138.5 C 409.493,146.995 426.16,155.995 442.5,165.5C 442.833,166.167 443.167,166.833 443.5,167.5C 430.886,173.598 417.886,178.932 404.5,183.5C 402.027,183.912 400.694,182.912 400.5,180.5C 410.513,175.601 420.846,171.267 431.5,167.5C 434.46,166.968 434.793,166.301 432.5,165.5C 431.508,165.672 430.842,165.338 430.5,164.5C 430.027,163.094 429.027,162.427 427.5,162.5C 423.849,161.341 420.515,159.674 417.5,157.5C 417.027,156.094 416.027,155.427 414.5,155.5C 410.182,154.008 406.182,152.008 402.5,149.5C 402.027,148.094 401.027,147.427 399.5,147.5C 395.849,146.341 392.515,144.674 389.5,142.5C 386.941,139.342 387.941,138.009 392.5,138.5 Z"/></g>
<g><path style="opacity:0.051" fill="#e7e7e7" d="M 442.5,165.5 C 445.46,166.032 445.793,166.699 443.5,167.5C 443.167,166.833 442.833,166.167 442.5,165.5 Z"/></g>
<g><path style="opacity:0.365" fill="#ebebeb" d="M 432.5,165.5 C 434.793,166.301 434.46,166.968 431.5,167.5C 431.833,166.833 432.167,166.167 432.5,165.5 Z"/></g>
<g><path style="opacity:0.976" fill="#a3a3a3" d="M 14.5,167.5 C 13.1667,168.5 11.8333,169.5 10.5,170.5C 9.59603,169.791 9.26269,168.791 9.5,167.5C 11.1667,167.5 12.8333,167.5 14.5,167.5 Z"/></g>
<g><path style="opacity:0.953" fill="#a7a7a7" d="M 138.5,164.5 C 139.537,165.93 140.204,167.597 140.5,169.5C 138.787,168.365 138.12,166.698 138.5,164.5 Z"/></g>
<g><path style="opacity:0.318" fill="#e0e0e0" d="M -0.5,168.5 C -0.166667,168.5 0.166667,168.5 0.5,168.5C 1.16667,169.5 1.83333,170.5 2.5,171.5C 1.39105,171.443 0.391047,171.11 -0.5,170.5C -0.5,169.833 -0.5,169.167 -0.5,168.5 Z"/></g>
<g><path style="opacity:0.325" fill="#dadada" d="M 12.5,176.5 C 14.0269,176.427 15.0269,177.094 15.5,178.5C 13.9731,178.573 12.9731,177.906 12.5,176.5 Z"/></g>
<g><path style="opacity:0.945" fill="#acacac" d="M 172.5,175.5 C 172.741,177.898 172.074,179.898 170.5,181.5C 170.595,179.214 171.262,177.214 172.5,175.5 Z"/></g>
<g><path style="opacity:0.945" fill="#a5a5a5" d="M 264.5,177.5 C 264.741,179.898 264.074,181.898 262.5,183.5C 262.595,181.214 263.262,179.214 264.5,177.5 Z"/></g>
<g><path style="opacity:0.998" fill="#939393" d="M 400.5,180.5 C 400.694,182.912 402.027,183.912 404.5,183.5C 402.574,185.293 400.241,186.293 397.5,186.5C 399.382,185.763 400.048,184.596 399.5,183C 398.207,182.51 396.873,182.343 395.5,182.5C 396.93,181.463 398.597,180.796 400.5,180.5 Z"/></g>
<g><path style="opacity:0.994" fill="#707070" d="M 395.5,182.5 C 396.873,182.343 398.207,182.51 399.5,183C 400.048,184.596 399.382,185.763 397.5,186.5C 392.14,189.403 386.473,191.736 380.5,193.5C 378.545,193.201 377.211,192.201 376.5,190.5C 382.594,187.462 388.927,184.796 395.5,182.5 Z"/></g>
<g><path style="opacity:0.329" fill="#dadada" d="M 25.5,183.5 C 27.0269,183.427 28.0269,184.094 28.5,185.5C 26.9731,185.573 25.9731,184.906 25.5,183.5 Z"/></g>
<g><path style="opacity:0.953" fill="#a6a6a6" d="M 237.5,183.5 C 238.738,185.214 239.405,187.214 239.5,189.5C 237.926,187.898 237.259,185.898 237.5,183.5 Z"/></g>
<g><path style="opacity:0.993" fill="#959595" d="M 43.5,187.5 C 45.4341,188.11 47.1007,189.11 48.5,190.5C 47.1779,190.33 46.0113,190.663 45,191.5C 44.5899,190.099 44.0899,188.766 43.5,187.5 Z"/></g>
<g><path style="opacity:0.333" fill="#d8d8d8" d="M 38.5,190.5 C 40.0269,190.427 41.0269,191.094 41.5,192.5C 39.9731,192.573 38.9731,191.906 38.5,190.5 Z"/></g>
<g><path style="opacity:0.994" fill="#8c8c8c" d="M 376.5,190.5 C 377.211,192.201 378.545,193.201 380.5,193.5C 376.613,197.41 373.946,196.91 372.5,192C 373.745,191.209 375.078,190.709 376.5,190.5 Z"/></g>
<g><path style="opacity:1" fill="#949494" d="M 50.5,191.5 C 53.8384,192.193 54.3384,193.86 52,196.5C 50.2507,197.553 48.7507,197.22 47.5,195.5C 48.6879,194.316 49.8545,194.316 51,195.5C 51.5791,194.072 51.4124,192.738 50.5,191.5 Z"/></g>
<g><path style="opacity:1" fill="#737373" d="M 259.5,193.5 C 259.567,195.401 259.233,197.234 258.5,199C 258.905,199.945 259.572,200.612 260.5,201C 259.232,203.666 257.565,205.166 255.5,205.5C 256.261,201.216 257.595,197.216 259.5,193.5 Z"/></g>
<g><path style="opacity:0.957" fill="#a3a3a3" d="M 162.5,207.5 C 162.88,209.698 162.213,211.365 160.5,212.5C 160.796,210.597 161.463,208.93 162.5,207.5 Z"/></g>
<g><path style="opacity:1" fill="#8b8b8b" d="M 261.5,209.5 C 261.405,211.786 260.738,213.786 259.5,215.5C 259.025,212.918 259.692,210.918 261.5,209.5 Z"/></g>
<g><path style="opacity:0.072" fill="#eaeaea" d="M 396.5,219.5 C 396.5,216.167 396.5,212.833 396.5,209.5C 394.114,209.259 392.114,209.925 390.5,211.5C 390.5,210.5 390.5,209.5 390.5,208.5C 392.833,208.5 395.167,208.5 397.5,208.5C 397.815,212.371 397.482,216.038 396.5,219.5 Z"/></g>
<g><path style="opacity:0.267" fill="#e1e1e1" d="M 156.5,219.5 C 157.167,219.5 157.833,219.5 158.5,219.5C 157.833,223.5 157.167,223.5 156.5,219.5 Z"/></g>
<g><path style="opacity:0.471" fill="#b3b3b3" d="M 252.5,215.5 C 252.736,218.226 251.903,220.559 250,222.5C 248.731,221.095 248.231,219.429 248.5,217.5C 249.268,218.263 249.768,219.263 250,220.5C 250.757,218.685 251.59,217.019 252.5,215.5 Z"/></g>
<g><path style="opacity:0.627" fill="#b9b9b9" d="M 382.5,244.5 C 382.573,246.027 381.906,247.027 380.5,247.5C 380.427,245.973 381.094,244.973 382.5,244.5 Z"/></g>
<g><path style="opacity:0.839" fill="#b2b2b2" d="M 376.5,251.5 C 376.027,252.906 375.027,253.573 373.5,253.5C 373.973,252.094 374.973,251.427 376.5,251.5 Z"/></g>
<g><path style="opacity:0.91" fill="#a0a0a0" d="M 371.5,254.5 C 369.081,256.862 366.081,257.862 362.5,257.5C 365.341,256.331 368.341,255.331 371.5,254.5 Z"/></g>
<g><path style="opacity:0.091" fill="#f2f2f2" d="M 260.5,259.5 C 260.5,261.167 260.5,262.833 260.5,264.5C 270.5,264.5 280.5,264.5 290.5,264.5C 280.347,265.494 270.014,265.828 259.5,265.5C 259.205,263.265 259.539,261.265 260.5,259.5 Z"/></g>
<g><path style="opacity:0.398" fill="#e9e9e9" d="M 397.5,257.5 C 398.473,259.948 398.806,262.615 398.5,265.5C 390.648,265.825 382.982,265.492 375.5,264.5C 382.833,264.5 390.167,264.5 397.5,264.5C 397.5,262.167 397.5,259.833 397.5,257.5 Z"/></g>
<g><path style="opacity:0.718" fill="#b9b9b9" d="M 145.5,264.5 C 147.5,265.833 149.5,265.833 151.5,264.5C 151.03,265.693 150.03,266.36 148.5,266.5C 146.97,266.36 145.97,265.693 145.5,264.5 Z"/></g>
<g><path style="opacity:0.702" fill="#b7b7b7" d="M 238.5,263.5 C 240.169,265.662 242.169,265.995 244.5,264.5C 243.082,266.308 241.082,266.975 238.5,266.5C 238.5,265.5 238.5,264.5 238.5,263.5 Z"/></g>
</svg>
